{
  "extensionsUsed": [
    "KHR_materials_transmission",
    "KHR_materials_clearcoat",
    "KHR_materials_ior",
    "KHR_materials_specular",
    "KHR_materials_emissive_strength",
    "KHR_texture_transform"
  ],
  "accessors": [
    {
      "bufferView": 0,
      "componentType": 5126,
      "count": 4269,
      "type": "VEC3",
      "max": [
        92.71781,
        162.68938,
        82.13529
      ],
      "min": [
        -7.658987,
        62.308815,
        -18.241508
      ]
    },
    {
      "bufferView": 1,
      "componentType": 5125,
      "count": 24009,
      "type": "SCALAR",
      "max": [
        4268.0
      ],
      "min": [
        0.0
      ]
    },
    {
      "bufferView": 2,
      "componentType": 5126,
      "count": 4269,
      "type": "VEC3",
      "max": [
        0.9999249,
        1.0,
        0.9999249
      ],
      "min": [
        -1.0,
        -1.0,
        -1.0
      ]
    },
    {
      "bufferView": 3,
      "componentType": 5126,
      "count": 4269,
      "type": "VEC2",
      "max": [
        0.4105177,
        -0.0
      ],
      "min": [
        0.0,
        -0.8239651
      ]
    },
    {
      "bufferView": 4,
      "componentType": 5126,
      "count": 4,
      "type": "VEC3",
      "max": [
        42.531296,
        112.4991,
        -34.600018
      ],
      "min": [
        -70.07058,
        0.0,
        -34.600018
      ]
    },
    {
      "bufferView": 5,
      "componentType": 5125,
      "count": 6,
      "type": "SCALAR",
      "max": [
        3.0
      ],
      "min": [
        0.0
      ]
    },
    {
      "bufferView": 6,
      "componentType": 5126,
      "count": 4,
      "type": "VEC3",
      "max": [
        0.0,
        0.0,
        -1.0
      ],
      "min": [
        0.0,
        0.0,
        -1.0
      ]
    },
    {
      "bufferView": 7,
      "componentType": 5126,
      "count": 4,
      "type": "VEC2",
      "max": [
        0.99853516,
        -0.5882861
      ],
      "min": [
        0.70599127,
        -0.88109857
      ]
    },
    {
      "bufferView": 8,
      "componentType": 5126,
      "count": 4,
      "type": "VEC3",
      "max": [
        -70.07058,
        112.4991,
        31.948776
      ],
      "min": [
        -70.07058,
        0.0,
        -34.600018
      ]
    },
    {
      "bufferView": 9,
      "componentType": 5125,
      "count": 6,
      "type": "SCALAR",
      "max": [
        3.0
      ],
      "min": [
        0.0
      ]
    },
    {
      "bufferView": 10,
      "componentType": 5126,
      "count": 4,
      "type": "VEC3",
      "max": [
        -1.0,
        0.0,
        0.0
      ],
      "min": [
        -1.0,
        0.0,
        0.0
      ]
    },
    {
      "bufferView": 11,
      "componentType": 5126,
      "count": 4,
      "type": "VEC2",
      "max": [
        0.879912,
        -0.29427734
      ],
      "min": [
        0.70599127,
        -0.58682126
      ]
    },
    {
      "bufferView": 12,
      "componentType": 5126,
      "count": 4,
      "type": "VEC3",
      "max": [
        42.531296,
        0.0,
        31.948776
      ],
      "min": [
        -70.07058,
        0.0,
        -34.600018
      ]
    },
    {
      "bufferView": 13,
      "componentType": 5125,
      "count": 6,
      "type": "SCALAR",
      "max": [
        3.0
      ],
      "min": [
        0.0
      ]
    },
    {
      "bufferView": 14,
      "componentType": 5126,
      "count": 4,
      "type": "VEC3",
      "max": [
        0.0,
        -1.0,
        0.0
      ],
      "min": [
        0.0,
        -1.0,
        0.0
      ]
    },
    {
      "bufferView": 15,
      "componentType": 5126,
      "count": 4,
      "type": "VEC2",
      "max": [
        0.879912,
        -0.0
      ],
      "min": [
        0.70599127,
        -0.2928125
      ]
    },
    {
      "bufferView": 16,
      "componentType": 5126,
      "count": 37,
      "type": "VEC3",
      "max": [
        42.531296,
        112.4991,
        31.948776
      ],
      "min": [
        -70.07058,
        0.0,
        31.948776
      ]
    },
    {
      "bufferView": 17,
      "componentType": 5125,
      "count": 105,
      "type": "SCALAR",
      "max": [
        36.0
      ],
      "min": [
        0.0
      ]
    },
    {
      "bufferView": 18,
      "componentType": 5126,
      "count": 37,
      "type": "VEC3",
      "max": [
        2.7755576E-17,
        0.0,
        1.0
      ],
      "min": [
        -2.7755576E-17,
        0.0,
        1.0
      ]
    },
    {
      "bufferView": 19,
      "componentType": 5126,
      "count": 37,
      "type": "VEC2",
      "max": [
        0.7045264,
        -0.5882861
      ],
      "min": [
        0.41198254,
        -0.88109857
      ]
    },
    {
      "bufferView": 20,
      "componentType": 5126,
      "count": 37,
      "type": "VEC3",
      "max": [
        42.531296,
        112.4991,
        31.948776
      ],
      "min": [
        42.531296,
        0.0,
        -34.600018
      ]
    },
    {
      "bufferView": 21,
      "componentType": 5125,
      "count": 105,
      "type": "SCALAR",
      "max": [
        36.0
      ],
      "min": [
        0.0
      ]
    },
    {
      "bufferView": 22,
      "componentType": 5126,
      "count": 37,
      "type": "VEC3",
      "max": [
        1.0,
        0.0,
        5.551115E-17
      ],
      "min": [
        1.0,
        0.0,
        -5.551115E-17
      ]
    },
    {
      "bufferView": 23,
      "componentType": 5126,
      "count": 37,
      "type": "VEC2",
      "max": [
        0.5859033,
        -0.29427734
      ],
      "min": [
        0.41198254,
        -0.58682126
      ]
    },
    {
      "bufferView": 24,
      "componentType": 5126,
      "count": 37,
      "type": "VEC3",
      "max": [
        42.531296,
        112.4991,
        31.948776
      ],
      "min": [
        -70.07058,
        112.4991,
        -34.600018
      ]
    },
    {
      "bufferView": 25,
      "componentType": 5125,
      "count": 105,
      "type": "SCALAR",
      "max": [
        36.0
      ],
      "min": [
        0.0
      ]
    },
    {
      "bufferView": 26,
      "componentType": 5126,
      "count": 37,
      "type": "VEC3",
      "max": [
        0.0,
        1.0,
        0.0
      ],
      "min": [
        0.0,
        1.0,
        0.0
      ]
    },
    {
      "bufferView": 27,
      "componentType": 5126,
      "count": 37,
      "type": "VEC2",
      "max": [
        0.5859033,
        -0.0
      ],
      "min": [
        0.41198254,
        -0.2928125
      ]
    }
  ],
  "asset": {
    "version": "2.0"
  },
  "buffers": [
    {
      "uri": "data:application/octet-stream;base64,",
      "byteLength": 51228
    },
    {
      "uri": "data:application/octet-stream;base64,",
      "byteLength": 96036
    },
    {
      "uri": "data:application/octet-stream;base64,",
      "byteLength": 51228
    },
    {
      "uri": "data:application/octet-stream;base64,",
      "byteLength": 34152
    },
    {
      "uri": "data:application/octet-stream;base64,",
      "byteLength": 48
    },
    {
      "uri": "data:application/octet-stream;base64,",
      "byteLength": 24
    },
    {
      "uri": "data:application/octet-stream;base64,",
      "byteLength": 48
    },
    {
      "uri": "data:application/octet-stream;base64,",
      "byteLength": 32
    },
    {
      "uri": "data:application/octet-stream;base64,",
      "byteLength": 48
    },
    {
      "uri": "data:application/octet-stream;base64,",
      "byteLength": 24
    },
    {
      "uri": "data:application/octet-stream;base64,",
      "byteLength": 48
    },
    {
      "uri": "data:application/octet-stream;base64,",
      "byteLength": 32
    },
    {
      "uri": "data:application/octet-stream;base64,",
      "byteLength": 48
    },
    {
      "uri": "data:application/octet-stream;base64,",
      "byteLength": 24
    },
    {
      "uri": "data:application/octet-stream;base64,",
      "byteLength": 48
    },
    {
      "uri": "data:application/octet-stream;base64,",
      "byteLength": 32
    },
    {
      "uri": "data:application/octet-stream;base64,",
      "byteLength": 444
    },
    {
      "uri": "data:application/octet-stream;base64,",
      "byteLength": 420
    },
    {
      "uri": "data:application/octet-stream;base64,",
      "byteLength": 444
    },
    {
      "uri": "data:application/octet-stream;base64,",
      "byteLength": 296
    },
    {
      "uri": "data:application/octet-stream;base64,",
      "byteLength": 444
    },
    {
      "uri": "data:application/octet-stream;base64,",
      "byteLength": 420
    },
    {
      "uri": "data:application/octet-stream;base64,",
      "byteLength": 444
    },
    {
      "uri": "data:application/octet-stream;base64,",
      "byteLength": 296
    },
    {
      "uri": "data:application/octet-stream;base64,",
      "byteLength": 444
    },
    {
      "uri": "data:application/octet-stream;base64,",
      "byteLength": 420
    },
    {
      "uri": "data:application/octet-stream;base64,",
      "byteLength": 444
    },
    {
      "uri": "data:application/octet-stream;base64,",
      "byteLength": 296
    }
  ],
  "bufferViews": [
    {
      "buffer": 0,
      "byteLength": 51228,
      "target": 34962
    },
    {
      "buffer": 1,
      "byteLength": 96036,
      "target": 34963
    },
    {
      "buffer": 2,
      "byteLength": 51228,
      "target": 34962
    },
    {
      "buffer": 3,
      "byteLength": 34152,
      "target": 34962
    },
    {
      "buffer": 4,
      "byteLength": 48,
      "target": 34962
    },
    {
      "buffer": 5,
      "byteLength": 24,
      "target": 34963
    },
    {
      "buffer": 6,
      "byteLength": 48,
      "target": 34962
    },
    {
      "buffer": 7,
      "byteLength": 32,
      "target": 34962
    },
    {
      "buffer": 8,
      "byteLength": 48,
      "target": 34962
    },
    {
      "buffer": 9,
      "byteLength": 24,
      "target": 34963
    },
    {
      "buffer": 10,
      "byteLength": 48,
      "target": 34962
    },
    {
      "buffer": 11,
      "byteLength": 32,
      "target": 34962
    },
    {
      "buffer": 12,
      "byteLength": 48,
      "target": 34962
    },
    {
      "buffer": 13,
      "byteLength": 24,
      "target": 34963
    },
    {
      "buffer": 14,
      "byteLength": 48,
      "target": 34962
    },
    {
      "buffer": 15,
      "byteLength": 32,
      "target": 34962
    },
    {
      "buffer": 16,
      "byteLength": 444,
      "target": 34962
    },
    {
      "buffer": 17,
      "byteLength": 420,
      "target": 34963
    },
    {
      "buffer": 18,
      "byteLength": 444,
      "target": 34962
    },
    {
      "buffer": 19,
      "byteLength": 296,
      "target": 34962
    },
    {
      "buffer": 20,
      "byteLength": 444,
      "target": 34962
    },
    {
      "buffer": 21,
      "byteLength": 420,
      "target": 34963
    },
    {
      "buffer": 22,
      "byteLength": 444,
      "target": 34962
    },
    {
      "buffer": 23,
      "byteLength": 296,
      "target": 34962
    },
    {
      "buffer": 24,
      "byteLength": 444,
      "target": 34962
    },
    {
      "buffer": 25,
      "byteLength": 420,
      "target": 34963
    },
    {
      "buffer": 26,
      "byteLength": 444,
      "target": 34962
    },
    {
      "buffer": 27,
      "byteLength": 296,
      "target": 34962
    }
  ],
  "materials": [
    {
      "name": "Plaster",
      "extensions": {
        "KHR_materials_transmission": {},
        "KHR_materials_clearcoat": {},
        "KHR_materials_ior": {
          "ior": 1.0
        },
        "KHR_materials_specular": {
          "specularFactor": 0.5,
          "specularColorFactor": [
            1.0,
            1.0,
            1.0
          ]
        }
      },
      "pbrMetallicRoughness": {
        "baseColorFactor": [
          0.57315886,
          0.19046287,
          0.15415226,
          1.0
        ],
        "metallicFactor": 0.0
      }
    }
  ],
  "meshes": [
    {
      "primitives": [
        {
          "attributes": {
            "POSITION": 0,
            "NORMAL": 2,
            "TEXCOORD_0": 3
          },
          "indices": 1,
          "material": 0
        },
        {
          "attributes": {
            "POSITION": 4,
            "NORMAL": 6,
            "TEXCOORD_0": 7
          },
          "indices": 5,
          "material": 0
        },
        {
          "attributes": {
            "POSITION": 8,
            "NORMAL": 10,
            "TEXCOORD_0": 11
          },
          "indices": 9,
          "material": 0
        },
        {
          "attributes": {
            "POSITION": 12,
            "NORMAL": 14,
            "TEXCOORD_0": 15
          },
          "indices": 13,
          "material": 0
        },
        {
          "attributes": {
            "POSITION": 16,
            "NORMAL": 18,
            "TEXCOORD_0": 19
          },
          "indices": 17,
          "material": 0
        },
        {
          "attributes": {
            "POSITION": 20,
            "NORMAL": 22,
            "TEXCOORD_0": 23
          },
          "indices": 21,
          "material": 0
        },
        {
          "attributes": {
            "POSITION": 24,
            "NORMAL": 26,
            "TEXCOORD_0": 27
          },
          "indices": 25,
          "material": 0
        }
      ]
    }
  ],
  "nodes": [
    {
      "mesh": 0
    }
  ],
  "samplers": [
    {
      "magFilter": 9729,
      "minFilter": 9729
    }
  ],
  "scene": 0,
  "scenes": [
    {
      "nodes": [
        0
      ],
      "extensions": {}
    }
  ],
  "extensions": {}
}